<svg xmlns="http://www.w3.org/2000/svg" viewBox="0 0 400 300" width="406" height="306" class="illustration styles_illustrationTablet__1DWOa"><g id="_543_road_trip_flatline" data-name="#543_road_trip_flatline"><path d="M341.07,236.17H58.93a.51.51,0,0,1-.5-.5.5.5,0,0,1,.5-.5H341.07a.5.5,0,0,1,.5.5A.51.51,0,0,1,341.07,236.17Z" fill="#e6e7e8"></path><rect x="196.16" y="74.34" width="44.62" height="31.96" fill="#fff"></rect><path d="M240.78,106.79H196.16a.5.5,0,0,1-.5-.5V74.34a.5.5,0,0,1,.5-.5h44.62a.5.5,0,0,1,.5.5v32A.5.5,0,0,1,240.78,106.79Zm-44.12-1h43.62V74.84H196.66Z" fill="#231f20"></path><rect x="162.41" y="81.92" width="64.48" height="24.28" fill="#fff"></rect><path d="M226.88,106.69H162.41a.5.5,0,0,1-.5-.5V81.92a.5.5,0,0,1,.5-.5h64.47a.5.5,0,0,1,.5.5v24.27A.5.5,0,0,1,226.88,106.69Zm-64-1h63.47V82.42H162.91Z" fill="#231f20"></path><rect x="193.66" y="65.42" width="49.62" height="11.1" fill="#fff"></rect><path d="M243.28,77H193.66a.51.51,0,0,1-.5-.5V65.42a.5.5,0,0,1,.5-.5h49.62a.5.5,0,0,1,.5.5v11.1A.5.5,0,0,1,243.28,77Zm-49.12-1h48.62V65.92H194.16Z" fill="#231f20"></path><path d="M160,81.92A13.94,13.94,0,0,1,155.3,92.4a13.06,13.06,0,0,1-1.84,1.39A13.92,13.92,0,0,1,146,95.93a14.07,14.07,0,0,1-2.93-.3c-.34-.07-.67-.16-1-.25A14.05,14.05,0,0,1,133,87.17a13.22,13.22,0,0,1-.72-2.34,14.09,14.09,0,0,1,3.15-12.13l.47-.51a14.06,14.06,0,0,1,8-4.14,15.05,15.05,0,0,1,1.52-.14H146a14,14,0,0,1,11.79,6.44c.2.31.38.62.55.94A13.92,13.92,0,0,1,160,81.92Z" fill="#fff"></path><path d="M146,96.43a14.63,14.63,0,0,1-3-.31c-.36-.08-.7-.16-1-.26a14.64,14.64,0,0,1-9.4-8.5,15.19,15.19,0,0,1-.74-2.43,14.6,14.6,0,0,1,3.26-12.56l.49-.53a14.54,14.54,0,0,1,8.31-4.28,13.85,13.85,0,0,1,1.58-.15H146a14.46,14.46,0,0,1,12.21,6.67c.21.32.4.65.58,1a14.53,14.53,0,0,1-3.17,17.73,13.87,13.87,0,0,1-1.9,1.43A14.42,14.42,0,0,1,146,96.43Zm0-28h-.53a11.81,11.81,0,0,0-1.47.14,13.6,13.6,0,0,0-7.74,4c-.16.16-.31.32-.45.49a13.51,13.51,0,0,0-3.33,8.89,14.11,14.11,0,0,0,.29,2.81,13.51,13.51,0,0,0,9.44,10.17c.32.09.64.17,1,.24a13.71,13.71,0,0,0,10-1.77A14.16,14.16,0,0,0,155,92a13.51,13.51,0,0,0,2.94-16.51c-.16-.31-.34-.61-.53-.91A13.47,13.47,0,0,0,146,68.4Z" fill="#231f20"></path><path d="M144.3,76.52h0c-.09.08-.88.75-2,1.78A126.82,126.82,0,0,0,133,87.17a13.22,13.22,0,0,1-.72-2.34,14.09,14.09,0,0,1,3.15-12.13l.47-.51a18.54,18.54,0,0,1,6.85,3A15,15,0,0,1,144.3,76.52Z" fill="#68e1fd"></path><path d="M133,87.67h-.09a.52.52,0,0,1-.38-.31,15.19,15.19,0,0,1-.74-2.43,14.6,14.6,0,0,1,3.26-12.56l.49-.53a.51.51,0,0,1,.47-.14,19,19,0,0,1,7,3.13,14.65,14.65,0,0,1,1.59,1.32.52.52,0,0,1,.16.36.54.54,0,0,1-.1.3.46.46,0,0,1-.12.12c-.16.14-.92.78-2,1.74-2.29,2-6.54,5.87-9.2,8.84A.52.52,0,0,1,133,87.67Zm3.07-14.93c-.09.1-.18.19-.26.29a13.51,13.51,0,0,0-3.33,8.89,14.11,14.11,0,0,0,.29,2.81,15.07,15.07,0,0,0,.41,1.5c2.7-2.9,6.57-6.4,8.73-8.31l1.62-1.42q-.51-.45-1.08-.87A17.92,17.92,0,0,0,136.08,72.74Z" fill="#231f20"></path><path d="M158.35,75.28c-1.65-.15-3,2.58-4.52,2.64a31.86,31.86,0,0,0-5.77.54,9.48,9.48,0,0,1-3.7-.51l-.14-3.28-.28-6.62a15.05,15.05,0,0,1,1.52-.14H146a14,14,0,0,1,11.79,6.44C158,74.65,158.18,75,158.35,75.28Z" fill="#68e1fd"></path><path d="M147.41,79a12,12,0,0,1-3.21-.6.49.49,0,0,1-.34-.45l-.42-9.9a.5.5,0,0,1,.42-.51,13.85,13.85,0,0,1,1.58-.15H146a14.46,14.46,0,0,1,12.21,6.67c.21.32.4.65.58,1a.52.52,0,0,1,0,.51.5.5,0,0,1-.46.22c-.67-.06-1.37.59-2.05,1.22a4.23,4.23,0,0,1-2.41,1.42,30.5,30.5,0,0,0-5.69.53A3.54,3.54,0,0,1,147.41,79Zm-2.57-1.45A7.83,7.83,0,0,0,148,78a31.81,31.81,0,0,1,5.86-.55c.53,0,1.15-.6,1.76-1.15a5.83,5.83,0,0,1,2-1.38,2.61,2.61,0,0,0-.17-.28,13.49,13.49,0,0,0-11.9-6.2c-.34,0-.69,0-1,.08Z" fill="#231f20"></path><path d="M160,81.92A13.94,13.94,0,0,1,155.3,92.4a13.06,13.06,0,0,1-1.84,1.39L145.37,79.2l-1.19-2.13h0l.61-.13c.43-.09,9-2.72,13-2.59.2.31.38.62.55.94A13.92,13.92,0,0,1,160,81.92Z" fill="#fff"></path><path d="M153.46,94.29l-.12,0A.47.47,0,0,1,153,94l-9.28-16.72a.55.55,0,0,1-.07-.25.51.51,0,0,1,.5-.5l0,0,.48-.1.54-.15c2.23-.63,9-2.57,12.58-2.45a.52.52,0,0,1,.41.24c.2.31.39.64.57,1a14.53,14.53,0,0,1-3.17,17.73,13.87,13.87,0,0,1-1.9,1.43A.5.5,0,0,1,153.46,94.29ZM145,77.41l8.69,15.67A14,14,0,0,0,155,92a13.51,13.51,0,0,0,2.94-16.51c-.12-.23-.25-.46-.39-.68-2.32,0-6.35.8-12,2.42Z" fill="#231f20"></path><path d="M144.29,76.52h0s0,.23-.1.54h0c-.09.49-.24,1.3-.41,2.33-.66,4-1.6,11.21-.69,16.23-.34-.07-.67-.16-1-.25A14.05,14.05,0,0,1,133,87.17a13.22,13.22,0,0,1-.72-2.34,12.57,12.57,0,0,1,4.21-4.28,47.54,47.54,0,0,1,5.44-3.1A13.42,13.42,0,0,1,144.29,76.52Z" fill="#fff"></path><path d="M143.08,96.13H143c-.35-.08-.69-.16-1-.26a14.64,14.64,0,0,1-9.4-8.5,15.19,15.19,0,0,1-.74-2.43.54.54,0,0,1,.06-.35,13.14,13.14,0,0,1,4.37-4.45A48,48,0,0,1,141.72,77a11.7,11.7,0,0,1,2.49-1,.48.48,0,0,1,.41.11.49.49,0,0,1,.17.38h0c0,.13,0,.32-.11.64a.09.09,0,0,0,0,0c-.1.49-.25,1.28-.41,2.27-.64,3.87-1.59,11.11-.69,16.06a.51.51,0,0,1-.14.45A.52.52,0,0,1,143.08,96.13ZM132.82,84.91a13.5,13.5,0,0,0,9.4,10l.25.07c-.72-5,.18-11.91.8-15.66.14-.85.27-1.55.37-2-.36.14-.85.34-1.49.64A50.16,50.16,0,0,0,136.77,81,12.28,12.28,0,0,0,132.82,84.91Z" fill="#231f20"></path><path d="M155.3,92.4a13.06,13.06,0,0,1-1.84,1.39A13.92,13.92,0,0,1,146,95.93a14.07,14.07,0,0,1-2.93-.3c-.34-.07-.67-.16-1-.25a50,50,0,0,1-.18-8.61,36.87,36.87,0,0,1,1.43-7.52,26.4,26.4,0,0,1,1-2.73h0l.5.41c.37.31.9.77,1.54,1.37a33.47,33.47,0,0,1,5.89,7A31.44,31.44,0,0,1,155.3,92.4Z" fill="#68e1fd"></path><path d="M146,96.43a14.63,14.63,0,0,1-3-.31c-.36-.08-.7-.16-1-.26a.5.5,0,0,1-.36-.43,50.4,50.4,0,0,1-.17-8.7,37.06,37.06,0,0,1,1.44-7.63,26.62,26.62,0,0,1,1-2.74.47.47,0,0,1,.12-.19.49.49,0,0,1,.66,0s.2.15.53.43.91.78,1.55,1.38a33.86,33.86,0,0,1,6,7.15,32,32,0,0,1,3.12,7.19.49.49,0,0,1-.14.51,14.62,14.62,0,0,1-1.91,1.43A14.42,14.42,0,0,1,146,96.43ZM142.54,95l.65.15a13.37,13.37,0,0,0,11.54-2.9,30.62,30.62,0,0,0-2.93-6.65,33.06,33.06,0,0,0-5.8-6.93c-.62-.57-1.14-1-1.5-1.33-.19.5-.43,1.19-.69,2.06a36.12,36.12,0,0,0-1.41,7.42A50.21,50.21,0,0,0,142.54,95Z" fill="#231f20"></path><path d="M145.46,67.91a61.85,61.85,0,0,1-.84,6.78c-.18,1.1-.32,1.83-.32,1.83a19.37,19.37,0,0,0-1.73-1.11,25.66,25.66,0,0,0-7.13-2.71l.47-.51a14.06,14.06,0,0,1,8-4.14A15.05,15.05,0,0,1,145.46,67.91Z" fill="#fff"></path><path d="M144.3,77a.48.48,0,0,1-.29-.1c-.54-.38-1.11-.74-1.69-1.08a25.18,25.18,0,0,0-7-2.65.5.5,0,0,1-.36-.33.51.51,0,0,1,.09-.49l.49-.53a14.54,14.54,0,0,1,8.31-4.28,13.85,13.85,0,0,1,1.58-.15.46.46,0,0,1,.37.15.53.53,0,0,1,.15.37,63.17,63.17,0,0,1-.84,6.85c-.19,1.1-.33,1.83-.33,1.83a.51.51,0,0,1-.31.37A.58.58,0,0,1,144.3,77Zm-7.91-4.6A25.77,25.77,0,0,1,142.82,75c.38.22.76.46,1.13.7l.18-1.06c.3-1.75.66-4.18.8-6.17-.31,0-.62.06-.92.11A13.5,13.5,0,0,0,136.39,72.42Z" fill="#231f20"></path><circle cx="144.3" cy="77.06" r="2.39" fill="#fff"></circle><path d="M144.3,80a2.9,2.9,0,1,1,2.89-2.9A2.9,2.9,0,0,1,144.3,80Zm0-4.79a1.9,1.9,0,1,0,1.89,1.89A1.9,1.9,0,0,0,144.3,75.17Z" fill="#231f20"></path><path d="M105.75,95.4s.56-8.64-1.32-13.33-.94-6.2,0-6.38,6.95,2.06,12.77,8.07,6.19,11.64,6.19,11.64Z" fill="#fff"></path><path d="M123.39,95.9H105.75a.5.5,0,0,1-.5-.54c0-.08.53-8.57-1.28-13.11-1.16-2.9-1.43-5-.78-6.17a1.67,1.67,0,0,1,1.14-.88c1.29-.26,7.5,2.3,13.23,8.21,5.87,6.07,6.31,11.72,6.33,12a.5.5,0,0,1-.5.54Zm-17.12-1h16.55a21.21,21.21,0,0,0-6-10.79c-5.7-5.89-11.51-8.06-12.31-7.93a.68.68,0,0,0-.46.38c-.23.42-.6,1.77.83,5.32C106.54,86,106.37,92.92,106.27,94.9Z" fill="#231f20"></path><path d="M341.07,164v46.55H61.76s-.39-34.31.38-57.55c.08-2.29.16-4.48.26-6.51a90.3,90.3,0,0,1,1.24-12.9c2.62-10.89,9.38-25.9,28.9-25.9s203.1-3.38,213.61,0a30.64,30.64,0,0,1,13.62,9,1.39,1.39,0,0,1-1,2.31h-.93S334.2,134.31,339.46,153A40.48,40.48,0,0,1,341.07,164Z" fill="#68e1fd"></path><path d="M341.07,211.06H61.76a.5.5,0,0,1-.5-.5c0-.34-.39-34.59.38-57.57.08-2.29.16-4.49.26-6.52.33-6.59.74-10.84,1.25-13,4.14-17.2,14.3-26.28,29.39-26.28,4.15,0,15.65-.16,31.56-.37,60.75-.8,173.85-2.3,182.2.39a31.3,31.3,0,0,1,13.84,9.1,1.9,1.9,0,0,1-1.15,3.12c3.47,3.48,16.41,17.29,20.95,33.43A41,41,0,0,1,341.57,164v46.55A.51.51,0,0,1,341.07,211.06Zm-278.82-1H340.57V164a39.91,39.91,0,0,0-1.6-10.87c-5.16-18.35-21.36-33.67-21.53-33.82a.51.51,0,0,1-.12-.55.5.5,0,0,1,.47-.31h.93a.89.89,0,0,0,.81-.52.91.91,0,0,0-.14-1,30.45,30.45,0,0,0-13.4-8.8c-8.19-2.63-125.5-1.08-181.88-.34-15.91.21-27.41.37-31.57.37-14.79,0-24.34,8.58-28.42,25.51a88.5,88.5,0,0,0-1.22,12.81c-.11,2-.19,4.22-.27,6.5C61.92,174.48,62.21,205.76,62.25,210.06Z" fill="#231f20"></path><path d="M341.07,164v12.54c-4.94-7.58-12.28-17.59-17.84-19.86C314.52,153.13,290.46,153,288,153H62.33v0a2.56,2.56,0,0,1,.07-5.1V146.5a90.3,90.3,0,0,1,1.24-12.9c2.62-10.89,9.38-25.9,28.9-25.9s203.1-3.38,213.61,0a30.64,30.64,0,0,1,13.62,9,1.39,1.39,0,0,1-1,2.31h-.93s1.85,1.74,4.52,4.75c4.66,5.28,11.8,14.48,15.78,25.15.52,1.36,1,2.75,1.37,4.15A40.48,40.48,0,0,1,341.07,164Z" fill="#231f20"></path><path d="M341.07,177.05a.5.5,0,0,1-.42-.23c-5.06-7.76-12.22-17.47-17.61-19.67-8.81-3.6-34-3.64-35.06-3.64H62.33a.48.48,0,0,1-.24-.06,3.06,3.06,0,0,1-.19-6v-.95c.33-6.62.74-10.87,1.25-13,4.14-17.2,14.3-26.28,29.39-26.28,4.15,0,15.65-.16,31.56-.37,60.75-.8,173.85-2.3,182.2.39a31.3,31.3,0,0,1,13.84,9.1,1.9,1.9,0,0,1-1.15,3.12c.8.8,2.11,2.15,3.69,3.93,5.08,5.77,12,14.83,15.87,25.31.53,1.38,1,2.79,1.39,4.19A41,41,0,0,1,341.57,164v12.54a.51.51,0,0,1-.36.48ZM62.5,152.51H288c2.69,0,26.6.1,35.44,3.71,5.3,2.17,12.08,11.05,17.15,18.66V164a39.91,39.91,0,0,0-1.6-10.87c-.38-1.37-.83-2.75-1.35-4.11-3.86-10.34-10.66-19.3-15.69-25-2.62-3-4.47-4.7-4.49-4.72a.51.51,0,0,1-.12-.55.5.5,0,0,1,.47-.31h.93a.89.89,0,0,0,.81-.52.91.91,0,0,0-.14-1,30.45,30.45,0,0,0-13.4-8.8c-8.19-2.63-125.5-1.08-181.88-.34-15.91.21-27.41.37-31.57.37-14.79,0-24.34,8.58-28.42,25.51a88.5,88.5,0,0,0-1.22,12.81v1.36a.49.49,0,0,1-.46.49,2.06,2.06,0,0,0-.06,4.11Z" fill="#231f20"></path><circle cx="283.25" cy="212.81" r="21.77" fill="#231f20"></circle><path d="M283.25,235.08a22.28,22.28,0,1,1,22.27-22.27A22.3,22.3,0,0,1,283.25,235.08Zm0-43.55a21.28,21.28,0,1,0,21.27,21.28A21.31,21.31,0,0,0,283.25,191.53Z" fill="#231f20"></path><circle cx="283.25" cy="212.81" r="13.48" fill="#fff"></circle><path d="M283.25,226.79a14,14,0,1,1,14-14A14,14,0,0,1,283.25,226.79Zm0-27a13,13,0,1,0,13,13A13,13,0,0,0,283.25,199.83Z" fill="#231f20"></path><path d="M283.25,218.23a5.43,5.43,0,1,1,5.42-5.42A5.43,5.43,0,0,1,283.25,218.23Zm0-9.85a4.43,4.43,0,1,0,4.42,4.43A4.44,4.44,0,0,0,283.25,208.38Z" fill="#e6e7e8"></path><circle cx="108.45" cy="212.81" r="21.77" fill="#231f20"></circle><path d="M108.45,235.08a22.28,22.28,0,1,1,22.27-22.27A22.3,22.3,0,0,1,108.45,235.08Zm0-43.55a21.28,21.28,0,1,0,21.27,21.28A21.31,21.31,0,0,0,108.45,191.53Z" fill="#231f20"></path><circle cx="108.45" cy="212.81" r="13.48" fill="#fff"></circle><path d="M108.45,226.79a14,14,0,1,1,14-14A14,14,0,0,1,108.45,226.79Zm0-27a13,13,0,1,0,13,13A13,13,0,0,0,108.45,199.83Z" fill="#231f20"></path><path d="M108.45,218.23a5.43,5.43,0,1,1,5.42-5.42A5.43,5.43,0,0,1,108.45,218.23Zm0-9.85a4.43,4.43,0,1,0,4.42,4.43A4.44,4.44,0,0,0,108.45,208.38Z" fill="#e6e7e8"></path><path d="M154.48,208.38a.5.5,0,0,1-.5-.5V157a.5.5,0,0,1,1,0v50.86A.5.5,0,0,1,154.48,208.38Z" fill="#231f20"></path><path d="M242.33,208.38a.5.5,0,0,1-.5-.5V157a.5.5,0,0,1,.5-.5.5.5,0,0,1,.5.5v50.86A.5.5,0,0,1,242.33,208.38Z" fill="#231f20"></path><rect x="75.08" y="123.71" width="31.45" height="25.15" rx="4.15" fill="#fff"></rect><path d="M102.38,149.36H79.23a4.66,4.66,0,0,1-4.65-4.65V127.86a4.65,4.65,0,0,1,4.65-4.65h23.15a4.65,4.65,0,0,1,4.65,4.65v16.85A4.66,4.66,0,0,1,102.38,149.36ZM79.23,124.21a3.66,3.66,0,0,0-3.65,3.65v16.85a3.66,3.66,0,0,0,3.65,3.65h23.15a3.66,3.66,0,0,0,3.65-3.65V127.86a3.66,3.66,0,0,0-3.65-3.65Z" fill="#231f20"></path><rect x="117.36" y="123.71" width="31.45" height="25.15" rx="4.15" fill="#fff"></rect><path d="M144.66,149.36H121.51a4.66,4.66,0,0,1-4.65-4.65V127.86a4.65,4.65,0,0,1,4.65-4.65h23.15a4.65,4.65,0,0,1,4.65,4.65v16.85A4.66,4.66,0,0,1,144.66,149.36Zm-23.15-25.15a3.66,3.66,0,0,0-3.65,3.65v16.85a3.66,3.66,0,0,0,3.65,3.65h23.15a3.66,3.66,0,0,0,3.65-3.65V127.86a3.66,3.66,0,0,0-3.65-3.65Z" fill="#231f20"></path><rect x="159.64" y="123.71" width="31.45" height="25.15" rx="4.15" fill="#fff"></rect><path d="M186.93,149.36H163.79a4.65,4.65,0,0,1-4.65-4.65V127.86a4.65,4.65,0,0,1,4.65-4.65h23.14a4.65,4.65,0,0,1,4.65,4.65v16.85A4.65,4.65,0,0,1,186.93,149.36Zm-23.14-25.15a3.65,3.65,0,0,0-3.65,3.65v16.85a3.65,3.65,0,0,0,3.65,3.65h23.14a3.65,3.65,0,0,0,3.65-3.65V127.86a3.65,3.65,0,0,0-3.65-3.65Z" fill="#231f20"></path><rect x="201.91" y="123.71" width="31.45" height="25.15" rx="4.15" fill="#fff"></rect><path d="M229.21,149.36H206.07a4.65,4.65,0,0,1-4.65-4.65V127.86a4.65,4.65,0,0,1,4.65-4.65h23.14a4.65,4.65,0,0,1,4.65,4.65v16.85A4.65,4.65,0,0,1,229.21,149.36Zm-23.14-25.15a3.65,3.65,0,0,0-3.65,3.65v16.85a3.65,3.65,0,0,0,3.65,3.65h23.14a3.66,3.66,0,0,0,3.65-3.65V127.86a3.66,3.66,0,0,0-3.65-3.65Z" fill="#231f20"></path><path d="M312,148.86H247.54a3.35,3.35,0,0,1-3.35-3.35V127.06a3.35,3.35,0,0,1,3.35-3.35H301.4a3.36,3.36,0,0,1,2.9,1.68l10.6,18.46A3.34,3.34,0,0,1,312,148.86Z" fill="#fff"></path><path d="M312,149.36H247.54a3.86,3.86,0,0,1-3.85-3.85V127.06a3.85,3.85,0,0,1,3.85-3.85H301.4a3.85,3.85,0,0,1,3.33,1.93l10.61,18.46a3.85,3.85,0,0,1-3.34,5.76Zm-64.46-25.15a2.85,2.85,0,0,0-2.85,2.85v18.45a2.86,2.86,0,0,0,2.85,2.85H312a2.85,2.85,0,0,0,2.47-4.27l-10.61-18.45a2.82,2.82,0,0,0-2.46-1.43Z" fill="#231f20"></path><path d="M317.79,119.46H73.35a.5.5,0,0,1-.5-.5.5.5,0,0,1,.5-.5H317.79a.5.5,0,0,1,.5.5A.51.51,0,0,1,317.79,119.46Z" fill="#fff"></path><path d="M338.09,148.86H326.33a1.61,1.61,0,0,1-1.4-.82l-12.29-21.95a1.6,1.6,0,0,1,1.39-2.38h8.28C327,129,334.11,138.19,338.09,148.86Z" fill="#fff"></path><path d="M338.08,149.36H326.33a2.12,2.12,0,0,1-1.84-1.08l-12.29-22a2.09,2.09,0,0,1,1.84-3.12h8.27a.51.51,0,0,1,.37.16c5.08,5.77,12,14.83,15.87,25.31a.5.5,0,0,1-.05.46A.51.51,0,0,1,338.08,149.36Zm-24-25.15a1.08,1.08,0,0,0-1,.54,1.07,1.07,0,0,0,0,1.09l12.29,21.95a1.09,1.09,0,0,0,1,.57h11c-3.86-10-10.38-18.58-15.28-24.15Z" fill="#231f20"></path><path d="M322.85,208.38H312.43a.49.49,0,0,1-.39-.19l-17-22.1H257a7,7,0,0,1-7-7V154.62a.5.5,0,0,1,.5-.5.5.5,0,0,1,.5.5V179.1a6,6,0,0,0,6,6h38.28a.51.51,0,0,1,.4.19l17,22.1h10.17a.5.5,0,0,1,.5.5A.5.5,0,0,1,322.85,208.38Z" fill="#231f20"></path><rect x="312.43" y="202.85" width="36.32" height="11.93" rx="4.37" fill="#68e1fd"></rect><path d="M344.39,215.28H316.8a4.87,4.87,0,0,1-4.87-4.86v-3.2a4.88,4.88,0,0,1,4.87-4.87h27.59a4.88,4.88,0,0,1,4.87,4.87v3.2A4.87,4.87,0,0,1,344.39,215.28ZM316.8,203.35a3.88,3.88,0,0,0-3.87,3.87v3.2a3.87,3.87,0,0,0,3.87,3.86h27.59a3.87,3.87,0,0,0,3.87-3.86v-3.2a3.88,3.88,0,0,0-3.87-3.87Z" fill="#231f20"></path><rect x="55.01" y="202.85" width="24.81" height="11.93" rx="3.61" fill="#68e1fd"></rect><path d="M76.21,215.28H58.62a4.11,4.11,0,0,1-4.11-4.11v-4.71a4.12,4.12,0,0,1,4.11-4.11H76.21a4.12,4.12,0,0,1,4.11,4.11v4.71A4.11,4.11,0,0,1,76.21,215.28ZM58.62,203.35a3.12,3.12,0,0,0-3.11,3.11v4.71a3.11,3.11,0,0,0,3.11,3.11H76.21a3.11,3.11,0,0,0,3.11-3.11v-4.71a3.12,3.12,0,0,0-3.11-3.11Z" fill="#231f20"></path><rect x="258.94" y="162.78" width="12.11" height="4.5" rx="2.07" fill="#231f20"></rect><path d="M269,167.79h-8a2.57,2.57,0,0,1-2.57-2.57v-.37a2.58,2.58,0,0,1,2.57-2.57h8a2.58,2.58,0,0,1,2.57,2.57v.37A2.58,2.58,0,0,1,269,167.79Zm-8-4.51a1.57,1.57,0,0,0-1.57,1.57v.37a1.57,1.57,0,0,0,1.57,1.57h8a1.58,1.58,0,0,0,1.57-1.57v-.37a1.58,1.58,0,0,0-1.57-1.57Z" fill="#231f20"></path><path d="M329.26,202h0a.51.51,0,0,1-.49-.51c0-.3.12-30.78-12.67-44.13a.5.5,0,0,1,0-.71.51.51,0,0,1,.71,0c6.85,7.15,10,19,11.44,27.63a111.82,111.82,0,0,1,1.51,17.21A.5.5,0,0,1,329.26,202Z" fill="#231f20"></path><ellipse cx="334.77" cy="188.57" rx="4.18" ry="6.83" fill="#fff"></ellipse><path d="M334.77,195.9c-2.62,0-4.68-3.22-4.68-7.33s2.06-7.33,4.68-7.33,4.68,3.22,4.68,7.33S337.39,195.9,334.77,195.9Zm0-13.66c-2,0-3.68,2.9-3.68,6.33s1.69,6.33,3.68,6.33,3.68-2.9,3.68-6.33S336.77,182.24,334.77,182.24Z" fill="#231f20"></path><ellipse cx="330.9" cy="173.38" rx="2.79" ry="4.21" fill="#fff"></ellipse><path d="M330.9,178.09c-1.84,0-3.29-2.07-3.29-4.71s1.45-4.71,3.29-4.71,3.29,2.07,3.29,4.71S332.75,178.09,330.9,178.09Zm0-8.42c-1.24,0-2.29,1.7-2.29,3.71s1.05,3.71,2.29,3.71,2.29-1.7,2.29-3.71S332.14,169.67,330.9,169.67Z" fill="#231f20"></path><rect x="316.45" y="197.23" width="5.28" height="2.1" rx="1.05" fill="#fff"></rect><path d="M117.36,161.88H89.44a.5.5,0,0,1-.5-.5.5.5,0,0,1,.5-.5h27.92a.5.5,0,0,1,.5.5A.5.5,0,0,1,117.36,161.88Z" fill="#231f20"></path><path d="M117.36,167.22H89.44a.5.5,0,0,1-.5-.5.5.5,0,0,1,.5-.5h27.92a.5.5,0,0,1,.5.5A.5.5,0,0,1,117.36,167.22Z" fill="#231f20"></path><path d="M117.36,172.57H89.44a.5.5,0,0,1-.5-.5.5.5,0,0,1,.5-.5h27.92a.5.5,0,0,1,.5.5A.5.5,0,0,1,117.36,172.57Z" fill="#231f20"></path><path d="M117.36,177.92H89.44a.5.5,0,0,1-.5-.5.5.5,0,0,1,.5-.5h27.92a.5.5,0,0,1,.5.5A.5.5,0,0,1,117.36,177.92Z" fill="#231f20"></path><path d="M90.54,99.71h201.2a1.12,1.12,0,0,0,.32-2.2,149.76,149.76,0,0,0-33.12-5.68c-25.34-1.69-124.8,0-137,0A88.63,88.63,0,0,0,90.21,98,.87.87,0,0,0,90.54,99.71Z" fill="#fff"></path><path d="M291.74,100.21H90.54a1.34,1.34,0,0,1-1.34-1.09A1.36,1.36,0,0,1,90,97.58a88.91,88.91,0,0,1,31.9-6.25c2.58,0,9-.07,17.89-.18C172,90.78,239,90,259,91.33A149.88,149.88,0,0,1,292.21,97a1.62,1.62,0,0,1-.47,3.18Zm-76.93-8.63c-26.07,0-56.36.35-75,.57-8.89.11-15.31.18-17.9.18A87.91,87.91,0,0,0,90.41,98.5a.37.37,0,0,0-.23.42.34.34,0,0,0,.36.29h201.2a.62.62,0,0,0,.18-1.22,148.92,148.92,0,0,0-33-5.66C250.5,91.77,233.77,91.58,214.81,91.58Z" fill="#231f20"></path><path d="M251.15,95.4h0a2.44,2.44,0,0,1,2.44,2.44v8.36a0,0,0,0,1,0,0h-4.88a0,0,0,0,1,0,0V97.84A2.44,2.44,0,0,1,251.15,95.4Z" fill="#fff"></path><path d="M253.59,106.69h-4.88a.5.5,0,0,1-.5-.5V97.84a2.94,2.94,0,0,1,5.88,0v8.35A.5.5,0,0,1,253.59,106.69Zm-4.38-1h3.88V97.84a1.94,1.94,0,0,0-3.88,0Z" fill="#231f20"></path><path d="M133.08,95.4h0a2.44,2.44,0,0,1,2.44,2.44v8.36a0,0,0,0,1,0,0h-4.88a0,0,0,0,1,0,0V97.84A2.44,2.44,0,0,1,133.08,95.4Z" fill="#fff"></path><path d="M135.52,106.69h-4.88a.5.5,0,0,1-.5-.5V97.84a2.94,2.94,0,1,1,5.88,0v8.35A.5.5,0,0,1,135.52,106.69Zm-4.38-1H135V97.84a1.94,1.94,0,1,0-3.88,0Z" fill="#231f20"></path><path d="M208.92,140.1a.5.5,0,0,1-.4-.19.5.5,0,0,1,.08-.7l15.21-12.09a.5.5,0,0,1,.62.79L209.23,140A.47.47,0,0,1,208.92,140.1Z" fill="#e6e7e8"></path><path d="M216.52,143.86a.48.48,0,0,1-.4-.21.5.5,0,0,1,.1-.7l6.1-4.5a.5.5,0,0,1,.7.1.5.5,0,0,1-.1.7l-6.1,4.51A.57.57,0,0,1,216.52,143.86Z" fill="#e6e7e8"></path><path d="M167.76,141a.48.48,0,0,1-.39-.19.49.49,0,0,1,.08-.7L182.65,128a.5.5,0,0,1,.62.79l-15.2,12.08A.51.51,0,0,1,167.76,141Z" fill="#e6e7e8"></path><path d="M175.36,144.7a.51.51,0,0,1-.4-.2.5.5,0,0,1,.1-.7l6.1-4.5a.5.5,0,1,1,.6.8l-6.1,4.51A.55.55,0,0,1,175.36,144.7Z" fill="#e6e7e8"></path><path d="M122.62,141a.48.48,0,0,1-.39-.19.49.49,0,0,1,.08-.7L137.51,128a.5.5,0,0,1,.62.79l-15.2,12.08A.51.51,0,0,1,122.62,141Z" fill="#e6e7e8"></path><path d="M130.22,144.7a.51.51,0,0,1-.4-.2.5.5,0,0,1,.1-.7l6.1-4.5a.5.5,0,1,1,.6.8l-6.1,4.51A.55.55,0,0,1,130.22,144.7Z" fill="#e6e7e8"></path><path d="M83.2,139.07a.49.49,0,0,1-.39-.19.5.5,0,0,1,.08-.7L98.1,126.1a.49.49,0,0,1,.7.08.5.5,0,0,1-.08.7L83.51,139A.45.45,0,0,1,83.2,139.07Z" fill="#e6e7e8"></path><path d="M90.81,142.83a.49.49,0,0,1-.41-.21.51.51,0,0,1,.11-.7l6.1-4.5a.5.5,0,1,1,.59.8l-6.1,4.51A.53.53,0,0,1,90.81,142.83Z" fill="#e6e7e8"></path><path d="M291.32,149.36a.5.5,0,0,1-.5-.5V124.77a.5.5,0,1,1,1,0v24.09A.5.5,0,0,1,291.32,149.36Z" fill="#231f20"></path><path d="M258.94,144.7a.49.49,0,0,1-.36-.15.5.5,0,0,1,0-.71l17.73-16.69a.5.5,0,0,1,.69.73l-17.74,16.69A.48.48,0,0,1,258.94,144.7Z" fill="#e6e7e8"></path><path d="M278.32,141.6a.48.48,0,0,1-.33-.13.49.49,0,0,1,0-.7l6.8-7.55a.5.5,0,0,1,.71,0,.49.49,0,0,1,0,.7l-6.8,7.55A.51.51,0,0,1,278.32,141.6Z" fill="#e6e7e8"></path><path d="M253.59,133a.5.5,0,0,1-.35-.86l4.22-4.16a.5.5,0,0,1,.71,0,.51.51,0,0,1,0,.71l-4.23,4.17A.52.52,0,0,1,253.59,133Z" fill="#e6e7e8"></path><path d="M296.73,139.35a.52.52,0,0,1-.38-.17.51.51,0,0,1,0-.71l6.14-5.29a.49.49,0,0,1,.7,0,.51.51,0,0,1-.05.71l-6.14,5.29A.49.49,0,0,1,296.73,139.35Z" fill="#e6e7e8"></path><path d="M322.85,137.83a.54.54,0,0,1-.35-.14.5.5,0,0,1,0-.71l3.75-3.77a.5.5,0,0,1,.71,0,.5.5,0,0,1,0,.71l-3.75,3.77A.51.51,0,0,1,322.85,137.83Z" fill="#e6e7e8"></path><rect x="51.24" y="158.37" width="10.41" height="37.16" rx="5.21" fill="#231f20"></rect><path d="M56.45,196a5.71,5.71,0,0,1-5.71-5.71V163.58a5.71,5.71,0,1,1,11.42,0v26.75A5.71,5.71,0,0,1,56.45,196Zm0-37.17a4.72,4.72,0,0,0-4.71,4.71v26.75a4.71,4.71,0,1,0,9.42,0V163.58A4.72,4.72,0,0,0,56.45,158.87Z" fill="#231f20"></path></g></svg>